<?xml version="1.0" standalone="no"?>
<!DOCTYPE svg PUBLIC "-//W3C//DTD SVG 20010904//EN"
 "http://www.w3.org/TR/2001/REC-SVG-20010904/DTD/svg10.dtd">
<svg version="1.0" xmlns="http://www.w3.org/2000/svg"
 width="260.000000pt" height="260.000000pt" viewBox="0 0 260.000000 260.000000"
 preserveAspectRatio="xMidYMid meet">
<metadata>
Created by potrace 1.11, written by Peter Selinger 2001-2013
</metadata>
<g transform="translate(0.000000,260.000000) scale(0.100000,-0.100000)"
fill="#000000" stroke="none">
<path d="M0 1300 l0 -1300 1300 0 1300 0 0 1300 0 1300 -1300 0 -1300 0 0
-1300z m1259 845 c58 -29 67 -128 16 -172 -20 -18 -38 -23 -81 -23 -48 0 -60
4 -85 29 -49 50 -35 147 25 171 33 14 94 11 125 -5z m-34 -417 c16 -7 24 -17
21 -27 -3 -9 -48 -218 -100 -466 -53 -247 -103 -475 -112 -505 -45 -152 -169
-317 -281 -374 -61 -30 -79 -32 -91 -9 -8 13 2 27 42 67 56 55 111 153 144
256 21 65 205 921 199 927 -2 1 -28 6 -58 10 -48 7 -54 11 -57 34 -3 23 3 29
40 44 53 21 175 54 205 54 12 1 34 -4 48 -11z m348 -2 c16 -13 16 -18 -3 -109
-10 -52 -22 -108 -26 -124 -4 -20 4 -11 30 30 77 125 142 185 228 208 43 12
120 7 146 -10 17 -10 1 -86 -34 -158 l-25 -53 -79 40 c-44 22 -85 40 -91 40
-27 0 -127 -120 -167 -202 -37 -73 -50 -122 -102 -362 -33 -153 -60 -280 -60
-282 0 -2 -38 -4 -85 -4 -62 0 -85 3 -84 13 0 6 40 199 88 427 49 228 87 416
86 417 0 2 -26 6 -56 10 -51 8 -54 10 -54 37 0 26 5 31 55 48 53 19 168 45
200 47 8 0 23 -6 33 -13z"/>
</g>
</svg>
