<svg width="116" height="116" viewBox="0 0 116 116" version="1.1" xmlns="http://www.w3.org/2000/svg" xmlns:xlink="http://www.w3.org/1999/xlink">
<title>Github</title>
<desc>Created using Figma</desc>
<g id="Canvas" transform="translate(2546 -3207)">
<g id="Github" filter="url(#filter0_d)">
<g id="Ellipse">
<use xlink:href="#path0_fill" transform="translate(-2538 3211)" fill="#000"/>
</g>
<g id="&#239;&#130;&#155;">
<use xlink:href="#path1_fill" transform="translate(-2504 3243)" fill="#FFFFFF"/>
</g>
</g>
</g>
<defs>
<filter id="filter0_d" filterUnits="userSpaceOnUse" x="-2546" y="3207" width="116" height="116" color-interpolation-filters="sRGB">
<feFlood flood-opacity="0" result="BackgroundImageFix"/>
<feColorMatrix in="SourceAlpha" type="matrix" values="0 0 0 0 0 0 0 0 0 0 0 0 0 0 0 0 0 0 255 0"/>
<feOffset dx="0" dy="4"/>
<feGaussianBlur stdDeviation="4"/>
<feColorMatrix type="matrix" values="0 0 0 0 0 0 0 0 0 0 0 0 0 0 0 0 0 0 0.25 0"/>
<feBlend mode="normal" in2="BackgroundImageFix" result="effect1_dropShadow"/>
<feBlend mode="normal" in="SourceGraphic" in2="effect1_dropShadow" result="shape"/>
</filter>
<path id="path0_fill" d="M 100 50C 100 77.6142 77.6142 100 50 100C 22.3858 100 0 77.6142 0 50C 0 22.3858 22.3858 0 50 0C 77.6142 0 100 22.3858 100 50Z"/>
<path id="path1_fill" d="M 15.4286 2.71429C 6.91071 2.71429 0 9.625 0 18.1429C 0 24.9531 4.41964 30.7388 10.5469 32.7879C 11.3304 32.9286 11.6116 32.4464 11.6116 32.0446C 11.6116 31.6629 11.5915 30.4576 11.5915 29.1719C 11.5915 29.1719 7.29241 30.096 6.38839 27.3438C 6.38839 27.3438 5.68527 25.5558 4.6808 25.0938C 4.6808 25.0938 3.27455 24.1295 4.78125 24.1496C 4.78125 24.1496 6.30804 24.2701 7.15179 25.7366C 8.49777 28.1071 10.7478 27.4241 11.6317 27.0223C 11.7723 26.0379 12.1741 25.3549 12.6161 24.9531C 9.1808 24.5714 5.58482 23.2455 5.58482 17.3393C 5.58482 15.6518 6.1875 14.2857 7.17188 13.2009C 7.01116 12.7991 6.48884 11.2321 7.33259 9.10268C 8.6183 8.70089 11.5714 10.6897 11.5714 10.6897C 12.7969 10.3482 14.1228 10.1674 15.4286 10.1674C 16.7344 10.1674 18.0603 10.3482 19.2857 10.6897C 19.2857 10.6897 22.2388 8.70089 23.5246 9.10268C 24.3683 11.2321 23.846 12.7991 23.6853 13.2009C 24.6696 14.2857 25.2723 15.6518 25.2723 17.3393C 25.2723 23.2656 21.6562 24.5714 18.221 24.9531C 18.7835 25.4353 19.2656 26.3594 19.2656 27.8058C 19.2656 29.875 19.2455 31.5424 19.2455 32.0446C 19.2455 32.4464 19.5268 32.9286 20.3103 32.7879C 26.4375 30.7388 30.8571 24.9531 30.8571 18.1429C 30.8571 9.625 23.9464 2.71429 15.4286 2.71429ZM 5.84598 24.8728C 5.8058 24.9531 5.68527 24.9732 5.58482 24.9129C 5.46429 24.8527 5.40402 24.7522 5.4442 24.6719C 5.48438 24.6116 5.58482 24.5915 5.70536 24.6317C 5.82589 24.692 5.88616 24.7924 5.84598 24.8728ZM 6.46875 25.5558C 6.38839 25.6362 6.24777 25.596 6.14732 25.4955C 6.04688 25.375 6.02679 25.2344 6.10714 25.1741C 6.1875 25.0938 6.32812 25.1339 6.42857 25.2344C 6.52902 25.3549 6.54911 25.4955 6.46875 25.5558ZM 7.07143 26.4598C 6.99107 26.5201 6.83036 26.4598 6.72991 26.3192C 6.62946 26.1786 6.62946 26.0179 6.72991 25.9576C 6.83036 25.8772 6.99107 25.9375 7.07143 26.0781C 7.17188 26.2188 7.17188 26.3795 7.07143 26.4598ZM 7.91518 27.3036C 7.83482 27.404 7.65402 27.3839 7.51339 27.2433C 7.37277 27.1228 7.33259 26.942 7.43304 26.8616C 7.51339 26.7612 7.6942 26.7812 7.83482 26.9219C 7.95536 27.0424 7.99554 27.2232 7.91518 27.3036ZM 9.06027 27.8058C 9.02009 27.9263 8.83929 27.9866 8.67857 27.9263C 8.49777 27.8862 8.37723 27.7455 8.41741 27.625C 8.45759 27.5045 8.63839 27.4442 8.79911 27.4844C 8.97991 27.5446 9.10045 27.6853 9.06027 27.8058ZM 10.3259 27.9062C 10.3259 28.0268 10.1853 28.1272 10.0045 28.1272C 9.80357 28.1473 9.66295 28.0469 9.66295 27.9062C 9.66295 27.7857 9.80357 27.6853 9.98438 27.6853C 10.1652 27.6652 10.3259 27.7656 10.3259 27.9062ZM 11.4911 27.7054C 11.5112 27.8259 11.3906 27.9464 11.2098 27.9866C 11.029 28.0268 10.8683 27.9464 10.8482 27.8259C 10.8281 27.6853 10.9487 27.5647 11.1295 27.5246C 11.3103 27.5045 11.471 27.5848 11.4911 27.7054Z"/>
</defs>
</svg>
