<svg width="1440" height="1440" viewBox="0 0 1440 1440" version="1.1" xmlns="http://www.w3.org/2000/svg" xmlns:xlink="http://www.w3.org/1999/xlink">
<title>joe-image</title>
<desc>Created using Figma</desc>
<g id="Canvas" transform="translate(581 889)">
<g id="joe-image">
<path d="M -581 -889L 859 -889L 859 551L -581 551L -581 -889Z" fill="#38353A"/>
<g id="Vector">
<use xlink:href="#path0_fill" transform="translate(-581 -889)" fill="#38353A"/>
</g>
<g id="Vector">
<use xlink:href="#path1_fill" transform="translate(-222.464 -430.529)" fill="#EEEBE7"/>
</g>
<g id="Vector">
<use xlink:href="#path2_fill" transform="translate(-265.125 64.993)" fill="#EEEBE7"/>
</g>
<g id="Vector">
<use xlink:href="#path3_fill" transform="translate(-134.111 -357.287)" fill="#38353A"/>
</g>
<g id="Vector">
<use xlink:href="#path4_fill" transform="translate(24.264 -222.664)" fill="#38353A"/>
</g>
<g id="Vector">
<use xlink:href="#path5_fill" transform="translate(55.4318 -180.877)" fill="#38353A"/>
</g>
<g id="Vector">
<use xlink:href="#path6_fill" transform="translate(-230.936 219.752)" fill="#38353A"/>
</g>
<g id="Vector">
<use xlink:href="#path7_fill" transform="translate(-106.376 -314.632)" fill="#EEEBE7"/>
</g>
</g>
</g>
<defs>
<path id="path0_fill" d="M 1440 1440L 0 1440L 0 0L 1440 0L 1440 1440ZM 244.8 747.984C 223.776 735.648 224.256 729.12 241.248 713.328C 249.168 706.032 257.952 689.328 254.64 682.608C 248.928 670.944 247.2 648.72 223.392 654.096C 212.064 656.688 200.352 657.36 184.992 659.376C 182.4 679.056 169.68 707.376 178.848 723.6C 189.936 743.136 219.504 752.16 246.384 769.104C 245.088 756.336 244.608 751.776 244.176 747.312C 249.616 756.144 255.056 764.96 260.496 773.76L 223.776 778.56C 218.064 794.256 218.976 812.16 236.64 819.984C 246.24 824.4 263.472 821.76 273.024 815.664C 291.696 803.664 299.664 759.072 286.992 741.216C 280.32 731.616 267.792 726.816 257.712 719.52C 253.344 728.928 249.024 738.48 244.8 747.984ZM 610.416 489.216C 603.504 514.656 592.272 524.112 572.016 518.016C 507.792 498.336 452.976 518.544 403.728 558.768C 380.112 577.968 374.256 605.04 364.8 573.6C 364.8 573.6 354.672 583.872 372.72 591.024C 372.276 593.322 371.448 595.529 370.272 597.552C 357.072 613.392 351.456 627.264 375.888 638.88C 381.072 641.376 384.912 651.84 385.008 658.704C 385.632 688.032 369.312 714.48 374.064 745.968C 379.68 783.12 353.52 820.56 370.512 859.248C 371.616 861.744 368.784 865.824 369.696 868.56C 378.816 896.496 387.936 924.48 398.16 952.032C 399.696 956.112 406.704 959.232 411.792 960.72C 443.664 970.32 475.728 978.96 507.792 987.936C 525.456 992.736 547.2 993.12 559.824 1003.92C 581.904 1022.88 604.704 1022.54 628.944 1017.79C 651.888 1013.28 673.872 1003.68 696.864 999.696C 704.888 998.725 712.281 994.858 717.654 988.822C 723.028 982.785 726.013 974.994 726.048 966.912C 726.528 954.96 715.536 942.192 708.528 930.432C 705.744 925.632 699.936 922.752 691.488 915.504C 702.432 913.584 707.568 913.872 711.264 911.712C 718.944 907.296 732.096 901.296 731.904 896.304C 731.328 879.552 719.04 883.872 707.184 886.128C 698.88 887.76 689.616 884.208 680.736 882.96L 681.264 876.384L 719.184 865.056C 699.552 858.432 681.264 851.568 662.496 846.24C 656.288 844.64 649.701 845.5 644.112 848.64C 622.272 863.04 602.928 850.416 582.576 845.232C 617.088 839.184 651.648 836.4 686.16 833.52C 710.832 831.456 723.648 814.8 715.68 799.632C 708 803.088 700.608 808.944 693.312 808.8C 688.512 808.8 679.632 798.768 680.496 795.12C 682.224 788.064 689.376 782.304 694.512 775.92C 697.824 771.936 702.144 768.672 705.024 764.4C 712.56 753.168 717.936 740.016 727.008 730.368C 748.176 707.952 748.08 687.168 724.512 665.472C 722.037 662.51 719.745 659.401 717.648 656.16C 706.848 643.2 696.192 630.096 685.008 617.52C 678.768 610.512 667.056 605.232 665.808 597.696C 661.008 574.032 660.336 549.696 658.224 528.048C 666 527.184 678.48 527.76 679.056 525.456C 680.753 517.292 680.07 508.811 677.088 501.024C 674.37 495.067 669.424 490.414 663.312 488.064C 646.752 482.4 627.84 481.68 613.008 473.376C 574.08 451.584 541.536 453.024 517.92 481.056L 610.416 489.216ZM 504.816 1309.15C 587.04 1278.48 664.032 1164.82 626.688 1130.06C 621.648 1141.15 617.088 1152.34 611.664 1162.75C 603.744 1177.15 595.2 1191.55 585.936 1205.62C 584.016 1208.5 577.68 1209.55 573.552 1209.22C 571.968 1209.22 569.136 1202.54 569.712 1199.62C 574.512 1176 580.032 1152.48 585.504 1128.14L 551.904 1143.07C 563.28 1112.11 571.776 1085.47 582.672 1060.37C 589.968 1043.38 580.992 1040.16 568.272 1035.36C 551.382 1028.81 534.889 1021.28 518.88 1012.8C 490.704 998.112 462.48 977.568 429.456 990.96C 396.432 1004.35 377.28 986.88 356.832 967.776C 352.032 963.456 348.912 955.536 343.872 954.336C 338.832 953.136 326.4 957.84 326.4 960C 326.784 988.56 314.544 1017.94 334.848 1045.39C 343.536 1057.06 346.08 1073.33 352.752 1091.04L 341.28 1086.24L 317.28 1076.11C 316.324 1085.23 315.891 1094.4 315.984 1103.57C 318.432 1142.35 321.12 1181.14 324.576 1219.82C 325.584 1231.2 325.536 1246.37 332.448 1252.75C 352.848 1271.52 379.68 1276.32 408.96 1279.82C 404.928 1245.46 371.376 1220.35 388.224 1181.62C 406.464 1215.22 421.824 1244.88 439.104 1273.87C 445.584 1284.82 453.888 1296.43 464.352 1302.67C 485.76 1315.92 481.584 1287.74 493.824 1280.45L 504.816 1309.15Z"/>
<path id="path1_fill" d="M 251.736 30.7448L 158.952 22.6808C 182.568 -5.35118 215.112 -6.79117 254.04 15.0008C 268.872 23.3048 287.64 24.0248 304.344 29.6888C 310.456 32.0388 315.402 36.692 318.12 42.6488C 321.102 50.4363 321.785 58.9164 320.088 67.0808C 319.512 69.3848 307.032 68.8088 299.256 69.6728C 301.368 91.3208 302.28 115.657 306.84 139.321C 308.328 146.857 320.04 152.137 326.04 159.145C 337.224 171.721 347.88 184.825 358.68 197.785C 360.777 201.025 363.069 204.135 365.544 207.097C 389.112 229.033 389.208 249.577 368.04 271.993C 358.968 281.593 353.64 294.793 346.056 306.025C 343.176 310.297 338.856 313.561 335.544 317.545C 330.408 323.689 323.256 329.449 321.528 336.745C 320.664 340.393 329.688 350.377 334.344 350.425C 341.64 350.425 349.032 344.713 356.712 341.257C 364.68 356.425 351.912 373.081 327.192 375.145C 292.68 378.025 258.12 380.809 223.608 386.857C 243.96 392.041 263.304 404.761 285.144 390.265C 290.733 387.125 297.32 386.265 303.528 387.865C 322.296 393.193 340.584 400.057 360.216 406.681L 322.296 418.009L 321.768 424.585C 330.648 425.833 339.912 429.385 348.216 427.753C 360.072 425.497 372.216 421.177 372.936 437.929C 372.936 442.729 359.976 448.921 352.296 453.337C 348.6 455.497 343.464 455.209 332.52 457.129C 340.968 464.377 346.92 467.353 349.56 472.057C 356.568 483.817 367.56 496.585 367.08 508.537C 367.045 516.619 364.06 524.41 358.686 530.446C 353.313 536.483 345.92 540.35 337.896 541.321C 314.904 545.305 292.92 554.905 269.976 559.417C 245.736 564.217 222.936 564.505 200.856 545.545C 188.232 534.745 166.488 534.553 148.824 529.561C 116.808 520.585 84.744 511.753 52.824 502.345C 47.736 500.857 40.728 497.545 39.192 493.657C 28.968 466.105 19.992 438.121 10.728 410.185C 9.81599 407.449 12.648 403.369 11.544 400.873C -5.44802 362.185 20.712 324.745 15.096 287.593C 10.296 256.105 26.664 229.657 26.04 200.329C 26.04 193.465 22.104 183.001 16.92 180.505C -7.51201 168.889 -1.896 155.017 11.304 139.177C 13.9774 135.969 23.064 122.329 27.864 117.529C 32.664 112.729 47.064 100.729 47.064 100.729C 96.312 60.5048 149.064 39.7208 213.288 59.4008C 233.592 65.6408 244.824 56.1848 251.736 30.7448ZM 136.968 151.657L 136.248 151.081L 167.4 189.961C 180.312 182.041 197.256 215.641 216.648 191.737C 228.072 177.673 241.464 165.145 253.944 151.897L 249.144 146.425C 237.288 148.921 220.92 164.569 218.52 139.849L 247.704 130.249C 243.576 121.321 240.888 111.049 234.984 103.609C 201.384 60.4088 123.24 64.2488 92.52 110.185C 90.0629 113.973 88.5851 118.312 88.2193 122.812C 87.8535 127.313 88.6112 131.834 90.4242 135.969C 92.2372 140.104 95.0489 143.724 98.6067 146.504C 102.165 149.284 106.357 151.137 110.808 151.897C 119.522 152.445 128.265 152.365 136.968 151.657ZM 247.368 257.257L 304.968 207.865C 267.384 214.105 242.664 227.929 247.32 257.257L 247.368 257.257ZM 277.944 270.505C 303.864 283.081 316.824 267.049 334.44 254.905C 310.344 244.969 293.448 248.569 277.896 270.505L 277.944 270.505Z"/>
<path id="path2_fill" d="M 188.748 355.159L 177.852 326.647C 165.612 333.943 169.788 362.119 148.38 348.871C 137.916 342.439 129.612 330.823 123.132 320.071C 106.044 291.271 90.4923 261.175 72.2523 227.815C 55.4043 266.551 88.9563 291.655 92.9883 326.023C 63.7083 322.519 36.8763 317.719 16.4763 298.951C 9.5643 292.567 9.6123 277.399 8.6043 266.023C 5.1483 227.335 2.4603 188.551 0.0122955 149.767C -0.0805668 140.598 0.352163 131.431 1.30832 122.311L 25.3083 132.439L 36.7803 137.239C 30.1083 119.527 27.5643 103.255 18.8763 91.5911C -1.1877 63.8951 11.0523 34.5191 10.5243 6.00708C 10.5243 3.89508 22.5243 -1.04895 27.8523 0.199053C 33.1803 1.44705 36.1563 9.31907 40.8123 13.6391C 61.2603 32.8391 80.5083 50.2151 113.436 36.8231C 146.364 23.4311 174.684 43.9751 202.86 58.6631C 218.9 67.1609 235.424 74.7099 252.348 81.271C 265.02 86.071 273.996 89.2871 266.748 106.279C 255.852 131.623 247.548 158.023 235.98 188.983L 269.58 174.055C 264.108 198.391 258.636 222.055 253.788 245.527C 253.212 248.599 256.044 255.127 257.628 255.127C 261.756 255.463 268.092 254.407 270.012 251.527C 279.276 237.703 287.82 223.303 295.74 208.663C 301.404 198.247 305.724 187.063 310.764 175.975C 347.964 210.823 270.972 324.487 188.748 355.159ZM 46.5723 219.847C 65.4363 199.735 60.9723 169.687 34.1883 154.759C 38.6523 178.327 42.4923 198.439 46.5723 219.847Z"/>
<path id="path3_fill" d="M 48.6156 78.415C 39.9388 79.0385 31.2284 79.0385 22.5516 78.415C 18.1272 77.6386 13.9631 75.7809 10.4296 73.0073C 6.89619 70.2336 4.1028 66.6299 2.29783 62.5165C 0.492846 58.403 -0.267789 53.9073 0.0835312 49.429C 0.434851 44.9507 1.88723 40.6286 4.31158 36.847C 35.0316 -9.08904 113.08 -12.977 146.776 30.271C 152.68 37.855 155.368 47.983 159.496 56.911L 130.312 66.511C 132.712 91.231 149.08 75.583 160.936 73.087L 165.736 78.559C 153.256 91.807 139.864 104.335 128.44 118.399C 109.24 142.399 92.1036 108.799 79.1916 116.623L 48.0396 77.743C 72.0396 72.511 49.8636 54.991 54.9996 42.367L 27.7356 58.687L 48.6156 78.415Z"/>
<path id="path4_fill" d="M 0.591857 49.392C -4.20814 19.872 20.6559 6.19203 58.1919 3.51562e-05L 0.591857 49.392Z"/>
<path id="path5_fill" d="M -1.75781e-05 20.8533C 15.552 -1.08271 32.448 -4.68271 56.496 5.25329C 38.88 17.3973 25.968 33.4293 -1.75781e-05 20.8533Z"/>
<path id="path6_fill" d="M 12.384 65.088C 8.30401 43.68 4.464 23.568 1.46484e-06 2.63672e-05C 26.88 14.928 31.248 44.976 12.384 65.088Z"/>
<path id="path7_fill" d="M 20.88 35.76L -1.31836e-05 16.032L 27.12 1.75781e-05C 21.984 12.624 44.208 30.144 20.16 35.376L 20.88 35.76Z"/>
</defs>
</svg>
