<svg width="700" height="700" viewBox="0 0 700 700" version="1.1" xmlns="http://www.w3.org/2000/svg" xmlns:xlink="http://www.w3.org/1999/xlink">
<title>Group</title>
<desc>Created using Figma</desc>
<g id="Canvas" transform="translate(3867 -826)">
<g id="Group">
<g id="Rectangle 6">
<use xlink:href="#path0_fill" transform="translate(-3867 826)" fill="#38353A"/>
</g>
<g id="joe-image">
<path d="M -3659 919L -3374 919L -3374 1488L -3659 1488L -3659 919Z" fill="#38353A"/>
<g id="Vector">
<use xlink:href="#path1_fill" transform="translate(-3630.48 919)" fill="#EEEBE7"/>
</g>
<g id="Vector">
<use xlink:href="#path2_fill" transform="translate(-3659 1250.44)" fill="#EEEBE7"/>
</g>
<g id="Vector">
<use xlink:href="#path3_fill" transform="translate(-3571.4 967.99)" fill="#38353A"/>
</g>
<g id="Vector">
<use xlink:href="#path4_fill" transform="translate(-3465.51 1058.04)" fill="#38353A"/>
</g>
<g id="Vector">
<use xlink:href="#path5_fill" transform="translate(-3444.67 1085.99)" fill="#38353A"/>
</g>
<g id="Vector">
<use xlink:href="#path6_fill" transform="translate(-3636.14 1353.96)" fill="#38353A"/>
</g>
<g id="Vector">
<use xlink:href="#path7_fill" transform="translate(-3552.86 996.521)" fill="#EEEBE7"/>
</g>
</g>
</g>
</g>
<defs>
<path id="path0_fill" d="M 0 0L 700 0L 700 700L 0 700L 0 0Z"/>
<path id="path1_fill" d="M 168.319 20.5645L 106.28 15.1707C 122.071 -3.57927 143.831 -4.54245 169.859 10.0337C 179.777 15.588 192.326 16.0696 203.494 19.8581C 207.581 21.43 210.888 24.5424 212.705 28.5268C 214.7 33.7356 215.156 39.4078 214.021 44.8687C 213.636 46.4098 205.292 46.0246 200.092 46.6025C 201.504 61.0823 202.114 77.3601 205.163 93.1883C 206.158 98.229 213.989 101.761 218.001 106.448C 225.479 114.86 232.604 123.625 239.825 132.294C 241.227 134.461 242.76 136.541 244.415 138.522C 260.173 153.195 260.237 166.936 246.084 181.929C 240.018 188.351 236.455 197.18 231.384 204.693C 229.459 207.55 226.57 209.733 224.356 212.398C 220.922 216.508 216.139 220.36 214.984 225.24C 214.406 227.681 220.44 234.359 223.553 234.391C 228.432 234.391 233.374 230.57 238.509 228.258C 243.837 238.404 235.3 249.545 218.771 250.925C 195.695 252.852 172.587 254.714 149.512 258.759C 163.12 262.227 176.054 270.735 190.657 261.039C 194.394 258.938 198.798 258.363 202.949 259.433C 215.498 262.997 227.726 267.588 240.852 272.019L 215.498 279.596L 215.145 283.995C 221.082 284.829 227.276 287.205 232.829 286.114C 240.756 284.605 248.876 281.715 249.357 292.92C 249.357 296.131 240.692 300.272 235.557 303.226C 233.085 304.671 229.651 304.478 222.334 305.762C 227.982 310.61 231.962 312.601 233.727 315.747C 238.413 323.613 245.763 332.154 245.442 340.148C 245.418 345.554 243.423 350.765 239.829 354.803C 236.236 358.841 231.293 361.427 225.928 362.076C 210.555 364.741 195.856 371.162 180.515 374.18C 164.307 377.391 149.062 377.584 134.299 364.902C 125.858 357.678 111.319 357.549 99.5086 354.21C 78.1016 348.207 56.6626 342.299 35.3198 336.006C 31.9178 335.011 27.2321 332.796 26.205 330.195C 19.3689 311.766 13.3673 293.048 7.17309 274.363C 6.56329 272.533 8.45685 269.804 7.71868 268.134C -3.64272 242.257 13.8487 217.214 10.0937 192.364C 6.88422 171.302 17.8284 153.612 17.4112 133.995C 17.4112 129.404 14.7795 122.405 11.3133 120.735C -5.02277 112.966 -1.26772 103.687 7.55823 93.092C 9.34575 90.9462 15.4213 81.8228 18.6308 78.6122C 21.8402 75.4016 31.4685 67.3751 31.4685 67.3751C 64.3973 40.4702 99.6691 26.5683 142.611 39.7318C 156.187 43.9056 163.697 37.5807 168.319 20.5645ZM 91.5813 101.44L 91.0999 101.054L 111.929 127.06C 120.562 121.763 131.892 144.237 144.858 128.248C 152.496 118.841 161.451 110.461 169.795 101.6L 166.586 97.94C 158.659 99.6095 147.714 110.076 146.11 93.5415L 165.623 87.1203C 162.863 81.1486 161.066 74.2779 157.118 69.3014C 134.652 40.406 82.4023 42.9745 61.8619 73.7C 60.219 76.2338 59.2309 79.1361 58.9863 82.1463C 58.7417 85.1565 59.2483 88.1803 60.4606 90.9462C 61.6728 93.7122 63.5528 96.1337 65.9316 97.9932C 68.3105 99.8528 71.1138 101.092 74.0898 101.6C 79.9166 101.967 85.7622 101.913 91.5813 101.44ZM 165.398 172.073L 203.912 139.036C 178.782 143.21 162.253 152.456 165.366 172.073L 165.398 172.073ZM 185.842 180.934C 203.173 189.346 211.839 178.623 223.617 170.5C 207.506 163.854 196.209 166.262 185.81 180.934L 185.842 180.934Z"/>
<path id="path2_fill" d="M 126.203 237.557L 118.918 218.486C 110.734 223.366 113.526 242.213 99.2119 233.351C 92.2153 229.049 86.663 221.28 82.3303 214.088C 70.9047 194.824 60.5061 174.694 48.3103 152.38C 37.0451 178.29 59.4791 195.081 62.175 218.069C 42.5975 215.725 24.6567 212.515 11.0166 199.961C 6.395 195.691 6.4271 185.546 5.75312 177.936C 3.44232 152.059 1.64503 126.117 0.00822118 100.176C -0.0538696 94.0425 0.235468 87.9109 0.874783 81.8109L 16.922 88.5853L 24.5925 91.7959C 20.1314 79.9488 18.4304 69.0648 12.6213 61.2631C -0.794136 42.7379 7.38993 23.089 7.0369 4.01799C 7.0369 2.60533 15.0605 -0.701616 18.623 0.133142C 22.1854 0.967899 24.1753 6.2333 27.2884 9.12284C 40.9606 21.9653 53.8305 33.5877 75.8472 24.6301C 97.864 15.6725 116.8 29.4139 135.639 39.2383C 146.363 44.9223 157.412 49.9716 168.728 54.3602C 177.201 57.5709 183.203 59.722 178.357 71.0875C 171.071 88.0395 165.519 105.698 157.784 126.406L 180.25 116.421C 176.591 132.699 172.933 148.527 169.691 164.227C 169.306 166.282 171.2 170.648 172.259 170.648C 175.019 170.873 179.255 170.167 180.539 168.24C 186.733 158.994 192.446 149.362 197.742 139.57C 201.529 132.603 204.417 125.122 207.787 117.706C 232.66 141.014 181.181 217.042 126.203 237.557ZM 31.1398 147.05C 43.7529 133.598 40.7681 113.5 22.8594 103.515C 25.8442 119.279 28.4118 132.731 31.1398 147.05Z"/>
<path id="path3_fill" d="M 32.506 52.4499C 26.7044 52.8669 20.8803 52.8669 15.0787 52.4499C 12.1204 51.9306 9.33619 50.688 6.9736 48.8328C 4.61102 46.9776 2.74327 44.5672 1.5364 41.8158C 0.329533 39.0644 -0.179052 36.0573 0.0558517 33.0619C 0.290756 30.0665 1.26187 27.1755 2.88286 24.646C 23.4233 -6.07944 75.6087 -8.68002 98.1389 20.2475C 102.087 25.3203 103.884 32.0946 106.644 38.0664L 87.1306 44.4876C 88.7353 61.0222 99.6794 50.5556 107.607 48.8861L 110.816 52.5462C 102.472 61.4075 93.5173 69.7872 85.8789 79.1942C 73.0411 95.2472 61.5834 72.773 52.9501 78.0063L 32.1208 52.0004C 48.168 48.5008 33.3404 36.7821 36.7745 28.3382L 18.5449 39.2543L 32.506 52.4499Z"/>
<path id="path4_fill" d="M 0.395735 33.0371C -2.8137 13.2919 13.8112 4.1417 38.909 2.35152e-05L 0.395735 33.0371Z"/>
<path id="path5_fill" d="M -1.17533e-05 13.9483C 10.3986 -0.724197 21.6958 -3.13215 37.7751 3.5138C 25.9964 11.6366 17.363 22.3601 -1.17533e-05 13.9483Z"/>
<path id="path6_fill" d="M 8.28035 43.5358C 5.55233 29.2165 2.98478 15.7641 9.79442e-07 1.76364e-05C 17.9728 9.985 20.8934 30.0834 8.28035 43.5358Z"/>
<path id="path7_fill" d="M 13.9611 23.919L -8.81498e-06 10.7234L 18.1333 1.17576e-05C 14.6992 8.4439 29.5589 20.1626 13.4796 23.6622L 13.9611 23.919Z"/>
</defs>
</svg>
