<svg id="Layer_1" data-name="Layer 1" xmlns="http://www.w3.org/2000/svg" viewBox="0 0 299.94 299.94"><defs><style>.cls-1{fill:#fff;}</style></defs><title>joe-image</title><path d="M301,301H1V1H301ZM52,156.83c-4.38-2.57-4.28-3.93-.74-7.22,1.65-1.52,3.48-5,2.79-6.4-1.19-2.43-1.55-7.06-6.51-5.94-2.36.54-4.8.68-8,1.1-.54,4.1-3.19,10-1.28,13.38,2.31,4.07,8.47,5.95,14.07,9.48-.27-2.66-.37-3.61-.46-4.54q1.7,2.76,3.4,5.51l-7.65,1c-1.19,3.27-1,7,2.68,8.63,2,.92,5.59.37,7.58-.9,3.89-2.5,5.55-11.79,2.91-15.51-1.39-2-4-3-6.1-4.52C53.78,152.86,52.88,154.85,52,156.83Zm76.17-53.91c-1.44,5.3-3.78,7.27-8,6-13.38-4.1-24.8.11-35.06,8.49-4.92,4-6.1,3.82-8.07-2.73l3.16-2.36-.54-1.1-7.77,2.72c3,8.7,3,8.7,6.76,10.19a4.35,4.35,0,0,1-.51,1.36c-2.75,3.3-3.92,6.19,1.17,8.61,1.08.52,1.88,2.7,1.9,4.13.13,6.11-3.27,11.62-2.28,18.18,1.17,7.74-4.28,15.54-.74,23.6.23.52-.36,1.37-.17,1.94,1.9,5.82,3.8,11.65,5.93,17.39.32.85,1.78,1.5,2.84,1.81,6.64,2,13.32,3.8,20,5.67,3.68,1,8.21,1.08,10.84,3.33,4.6,3.95,9.35,3.88,14.4,2.89,4.78-.94,9.36-2.94,14.15-3.77a6.91,6.91,0,0,0,6.08-6.83c.1-2.49-2.19-5.15-3.65-7.6-.58-1-1.79-1.6-3.55-3.11,2.28-.4,3.35-.34,4.12-.79,1.6-.92,4.34-2.17,4.3-3.21-.12-3.49-2.68-2.59-5.15-2.12-1.73.34-3.66-.4-5.51-.66l.11-1.37,7.9-2.36c-4.09-1.38-7.9-2.81-11.81-3.92a5.18,5.18,0,0,0-3.83.5c-4.55,3-8.58.37-12.82-.71,7.19-1.26,14.39-1.84,21.58-2.44,5.14-.43,7.81-3.9,6.15-7.06-1.6.72-3.14,1.94-4.66,1.91-1,0-2.85-2.09-2.67-2.85.36-1.47,1.85-2.67,2.92-4,.69-.83,1.59-1.51,2.19-2.4,1.57-2.34,2.69-5.08,4.58-7.09,4.41-4.67,4.39-9-.52-13.52a19.8,19.8,0,0,1-1.43-1.94c-2.25-2.7-4.47-5.43-6.8-8.05-1.3-1.46-3.74-2.56-4-4.13-1-4.93-1.14-10-1.58-14.51,1.62-.18,4.22-.06,4.34-.54a9.07,9.07,0,0,0-.41-5.09,5.21,5.21,0,0,0-2.87-2.7c-3.45-1.18-7.39-1.33-10.48-3.06-8.11-4.54-14.89-4.24-19.81,1.6Zm-22,170.82c17.13-6.39,33.17-30.07,25.39-37.31-1.05,2.31-2,4.64-3.13,6.81-1.65,3-3.43,6-5.36,8.93-.4.6-1.72.82-2.58.75-.33,0-.92-1.39-.8-2,1-4.92,2.15-9.82,3.29-14.89l-7,3.11c2.37-6.45,4.14-12,6.41-17.23,1.52-3.54-.35-4.21-3-5.21A96.63,96.63,0,0,1,109.1,212c-5.87-3.06-11.75-7.34-18.63-4.55s-10.87-.85-15.13-4.83c-1-.9-1.65-2.55-2.7-2.8S69,200.55,69,201c.08,5.95-2.47,12.07,1.76,17.79,1.81,2.43,2.34,5.82,3.73,9.51l-2.39-1-5-2.11a50,50,0,0,0-.27,5.72c.51,8.08,1.07,16.16,1.79,24.22.21,2.37.2,5.53,1.64,6.86,4.25,3.91,9.84,4.91,15.94,5.64-.84-7.16-7.83-12.39-4.32-20.46,3.8,7,7,13.18,10.6,19.22,1.35,2.28,3.08,4.7,5.26,6,4.46,2.76,3.59-3.11,6.14-4.63Z" transform="translate(-1.03 -1.03)"/><path class="cls-1" d="M128.14,102.92l-19.33-1.68c4.92-5.84,11.7-6.14,19.81-1.6,3.09,1.73,7,1.88,10.48,3.06a5.21,5.21,0,0,1,2.87,2.7,9.07,9.07,0,0,1,.41,5.09c-.12.48-2.72.36-4.34.54.44,4.51.63,9.58,1.58,14.51.31,1.57,2.75,2.67,4,4.13,2.33,2.62,4.55,5.35,6.8,8.05a19.8,19.8,0,0,0,1.43,1.94c4.91,4.57,4.93,8.85.52,13.52-1.89,2-3,4.75-4.58,7.09-.6.89-1.5,1.57-2.19,2.4-1.07,1.28-2.56,2.48-2.92,4-.18.76,1.7,2.84,2.67,2.85,1.52,0,3.06-1.19,4.66-1.91,1.66,3.16-1,6.63-6.15,7.06-7.19.6-14.39,1.18-21.58,2.44,4.24,1.08,8.27,3.73,12.82.71a5.18,5.18,0,0,1,3.83-.5c3.91,1.11,7.72,2.54,11.81,3.92l-7.9,2.36-.11,1.37c1.85.26,3.78,1,5.51.66,2.47-.47,5-1.37,5.15,2.12,0,1-2.7,2.29-4.3,3.21-.77.45-1.84.39-4.12.79,1.76,1.51,3,2.13,3.55,3.11,1.46,2.45,3.75,5.11,3.65,7.6a6.91,6.91,0,0,1-6.08,6.83c-4.79.83-9.37,2.83-14.15,3.77-5.05,1-9.8,1.06-14.4-2.89-2.63-2.25-7.16-2.29-10.84-3.33-6.67-1.87-13.35-3.71-20-5.67-1.06-.31-2.52-1-2.84-1.81-2.13-5.74-4-11.57-5.93-17.39-.19-.57.4-1.42.17-1.94-3.54-8.06,1.91-15.86.74-23.6-1-6.56,2.41-12.07,2.28-18.18,0-1.43-.82-3.61-1.9-4.13-5.09-2.42-3.92-5.31-1.17-8.61a4.35,4.35,0,0,0,.51-1.36c-3.77-1.49-3.77-1.49-6.76-10.19l7.77-2.72.54,1.1L77,114.65c2,6.55,3.15,6.75,8.07,2.73,10.26-8.38,21.68-12.59,35.06-8.49C124.36,110.19,126.7,108.22,128.14,102.92Zm-23.91,25.19-.15-.12,6.49,8.1c2.69-1.65,6.22,5.35,10.26.37,2.38-2.93,5.17-5.54,7.77-8.3l-1-1.14c-2.47.52-5.88,3.78-6.38-1.37l6.08-2c-.86-1.86-1.42-4-2.65-5.55-7-9-23.28-8.2-29.68,1.37a5.68,5.68,0,0,0,3.81,8.69A37.88,37.88,0,0,0,104.23,128.11Zm23,22,12-10.29C131.4,141.12,126.25,144,127.22,150.11Zm6.37,2.76c5.4,2.62,8.1-.72,11.77-3.25C140.35,147.55,136.83,148.3,133.59,152.87Z" transform="translate(-1.03 -1.03)"/><path class="cls-1" d="M106.13,273.74l-2.27-5.94c-2.55,1.52-1.68,7.39-6.14,4.63-2.18-1.34-3.91-3.76-5.26-6-3.56-6-6.8-12.27-10.6-19.22-3.51,8.07,3.48,13.3,4.32,20.46-6.1-.73-11.69-1.73-15.94-5.64-1.44-1.33-1.43-4.49-1.64-6.86-.72-8.06-1.28-16.14-1.79-24.22a50,50,0,0,1,.27-5.72l5,2.11,2.39,1c-1.39-3.69-1.92-7.08-3.73-9.51C66.56,213.06,69.11,206.94,69,201c0-.44,2.5-1.47,3.61-1.21s1.73,1.9,2.7,2.8c4.26,4,8.27,7.62,15.13,4.83s12.76,1.49,18.63,4.55a96.63,96.63,0,0,0,10.31,4.71c2.64,1,4.51,1.67,3,5.21-2.27,5.28-4,10.78-6.41,17.23l7-3.11c-1.14,5.07-2.28,10-3.29,14.89-.12.64.47,2,.8,2,.86.07,2.18-.15,2.58-.75,1.93-2.88,3.71-5.88,5.36-8.93,1.18-2.17,2.08-4.5,3.13-6.81C139.3,243.67,123.26,267.35,106.13,273.74ZM76.51,245.55c3.93-4.19,3-10.45-2.58-13.56C74.86,236.9,75.66,241.09,76.51,245.55Z" transform="translate(-1.03 -1.03)"/><path class="cls-1" d="M51.85,156.68l.47,4.55c-5.6-3.53-11.76-5.41-14.07-9.48-1.91-3.34.74-9.28,1.28-13.38,3.18-.42,5.62-.56,8-1.1,5-1.12,5.32,3.51,6.51,5.94.69,1.4-1.14,4.88-2.79,6.4-3.54,3.29-3.64,4.65.74,7.22Z" transform="translate(-1.03 -1.03)"/><path class="cls-1" d="M52,156.83c.91-2,1.81-4,2.71-6,2.08,1.48,4.71,2.56,6.1,4.52,2.64,3.72,1,13-2.91,15.51-2,1.27-5.54,1.82-7.58.9-3.64-1.63-3.87-5.36-2.68-8.63l7.65-1c-1.14-1.83-2.27-3.67-3.41-5.52Z" transform="translate(-1.03 -1.03)"/><path d="M104.23,128.11a37.88,37.88,0,0,1-5.43,0A5.68,5.68,0,0,1,95,119.45c6.4-9.57,22.66-10.38,29.68-1.37,1.23,1.58,1.79,3.69,2.65,5.55l-6.08,2c.5,5.15,3.91,1.89,6.38,1.37l1,1.14c-2.6,2.76-5.39,5.37-7.77,8.3-4,5-7.57-2-10.26-.37l-6.49-8.1c5-1.09.38-4.74,1.45-7.37L99.88,124Z" transform="translate(-1.03 -1.03)"/><path d="M127.22,150.11c-1-6.15,4.18-9,12-10.29Z" transform="translate(-1.03 -1.03)"/><path d="M133.59,152.87c3.24-4.57,6.76-5.32,11.77-3.25C141.69,152.15,139,155.49,133.59,152.87Z" transform="translate(-1.03 -1.03)"/><path d="M76.51,245.55c-.85-4.46-1.65-8.65-2.58-13.56C79.53,235.1,80.44,241.36,76.51,245.55Z" transform="translate(-1.03 -1.03)"/><path class="cls-1" d="M104.23,128.11,99.88,124l5.65-3.34c-1.07,2.63,3.56,6.28-1.45,7.37Z" transform="translate(-1.03 -1.03)"/></svg>