<svg width="798" height="1171" viewBox="0 0 798 1171" version="1.1" xmlns="http://www.w3.org/2000/svg" xmlns:xlink="http://www.w3.org/1999/xlink">
<title>Group</title>
<desc>Created using Figma</desc>
<g id="Canvas" transform="translate(2001 -170)">
<g id="Group">
<g id="Rectangle">
<use xlink:href="#path0_fill" transform="translate(-2001 170)" fill="#222222"/>
</g>
<g id="joe-image">
<path d="M -1771 419L -1434 419L -1434 1092L -1771 1092L -1771 419Z" fill="#222222"/>
<g id="Vector">
<use xlink:href="#path1_fill" transform="translate(-1737.27 419)" fill="#FFFFFF"/>
</g>
<g id="Vector">
<use xlink:href="#path2_fill" transform="translate(-1771 811.023)" fill="#FFFFFF"/>
</g>
<g id="Vector">
<use xlink:href="#path3_fill" transform="translate(-1667.42 476.944)" fill="#222222"/>
</g>
<g id="Vector">
<use xlink:href="#path4_fill" transform="translate(-1542.2 583.448)" fill="#222222"/>
</g>
<g id="Vector">
<use xlink:href="#path5_fill" transform="translate(-1517.56 616.507)" fill="#222222"/>
</g>
<g id="Vector">
<use xlink:href="#path6_fill" transform="translate(-1743.97 933.457)" fill="#222222"/>
</g>
<g id="Vector">
<use xlink:href="#path7_fill" transform="translate(-1645.49 510.69)" fill="#FFFFFF"/>
</g>
</g>
</g>
</g>
<defs>
<path id="path0_fill" d="M 0 0L 798 0L 798 1171L 0 1171L 0 0Z"/>
<path id="path1_fill" d="M 199.03 24.3232L 125.672 17.9435C 144.344 -4.23348 170.074 -5.3727 200.851 11.8676C 212.578 18.4372 227.416 19.0068 240.623 23.4877C 245.455 25.3469 249.366 29.0281 251.515 33.7408C 253.873 39.9017 254.413 46.6106 253.071 53.0697C 252.615 54.8925 242.748 54.4368 236.6 55.1203C 238.27 72.2467 238.991 91.4997 242.597 110.221C 243.773 116.183 253.033 120.36 257.777 125.904C 266.619 135.854 275.044 146.221 283.583 156.474C 285.241 159.037 287.053 161.498 289.01 163.841C 307.643 181.195 307.719 197.448 290.983 215.182C 283.81 222.777 279.598 233.22 273.602 242.106C 271.325 245.485 267.909 248.068 265.291 251.22C 261.23 256.08 255.575 260.637 254.209 266.409C 253.526 269.295 260.661 277.194 264.342 277.232C 270.11 277.232 275.955 272.713 282.027 269.979C 288.326 281.979 278.232 295.156 258.687 296.789C 231.401 299.067 204.077 301.27 176.791 306.054C 192.882 310.156 208.176 320.219 225.443 308.751C 229.862 306.266 235.07 305.586 239.978 306.852C 254.816 311.067 269.276 316.497 284.797 321.738L 254.816 330.7L 254.399 335.902C 261.42 336.889 268.744 339.7 275.31 338.408C 284.683 336.624 294.285 333.206 294.854 346.459C 294.854 350.256 284.607 355.155 278.535 358.649C 275.613 360.358 271.553 360.13 262.9 361.649C 269.579 367.383 274.285 369.737 276.372 373.459C 281.913 382.762 290.604 392.864 290.224 402.319C 290.196 408.713 287.836 414.877 283.588 419.653C 279.339 424.428 273.494 427.488 267.15 428.256C 248.972 431.407 231.591 439.002 213.451 442.572C 194.286 446.369 176.26 446.597 158.803 431.597C 148.822 423.053 131.63 422.901 117.665 418.952C 92.3518 411.851 67.001 404.863 41.7642 397.421C 37.7414 396.243 32.2007 393.623 30.9863 390.547C 22.9029 368.75 15.8062 346.611 8.48186 324.51C 7.76081 322.345 9.99986 319.118 9.12701 317.143C -4.30736 286.536 16.3755 256.916 11.9353 227.524C 8.14029 202.612 21.0813 181.689 20.588 158.486C 20.588 153.056 17.4761 144.778 13.3774 142.803C -5.93921 133.613 -1.49903 122.639 8.93727 110.107C 11.0509 107.569 18.235 96.7781 22.0301 92.9807C 25.8251 89.1832 37.2101 79.6897 37.2101 79.6897C 76.147 47.8672 117.854 31.4244 168.632 46.9938C 184.685 51.9305 193.565 44.4496 199.03 24.3232ZM 108.291 119.98L 107.722 119.525L 132.351 150.284C 142.56 144.018 155.956 170.6 171.288 151.689C 180.32 140.562 190.908 130.651 200.775 120.17L 196.98 115.841C 187.607 117.816 174.666 130.195 172.768 110.639L 195.842 103.044C 192.578 95.9807 190.453 87.8542 185.785 81.9681C 159.22 47.7913 97.4371 50.8292 73.149 87.1706C 71.2063 90.1675 70.038 93.6003 69.7487 97.1607C 69.4595 100.721 70.0585 104.298 71.492 107.569C 72.9254 110.841 75.1484 113.705 77.9613 115.904C 80.7742 118.104 84.089 119.569 87.608 120.17C 94.4979 120.604 101.41 120.541 108.291 119.98ZM 195.576 203.524L 241.116 164.448C 211.401 169.385 191.857 180.322 195.538 203.524L 195.576 203.524ZM 219.751 214.005C 240.244 223.954 250.49 211.271 264.418 201.663C 245.367 193.802 232.008 196.65 219.713 214.005L 219.751 214.005Z"/>
<path id="path2_fill" d="M 149.23 280.977L 140.615 258.421C 130.938 264.193 134.24 286.484 117.314 276.003C 109.041 270.914 102.475 261.724 97.3519 253.218C 83.8417 230.434 71.5458 206.624 57.1248 180.232C 43.8042 210.877 70.3314 230.737 73.5192 257.927C 50.3696 255.155 29.1555 251.357 13.0266 236.509C 7.56181 231.459 7.59976 219.459 6.80281 210.459C 4.07039 179.852 1.94518 149.169 0.00972118 118.485C -0.0636985 111.231 0.27843 103.979 1.03439 96.7641L 20.0095 104.777L 29.0796 108.574C 23.8045 94.5616 21.7931 81.6883 14.9241 72.4605C -0.939032 50.5494 8.73827 27.3091 8.32082 4.75239C 8.32082 3.08152 17.8084 -0.829855 22.0208 0.157477C 26.2333 1.14481 28.5862 7.3726 32.2674 10.7903C 48.4342 25.98 63.6522 39.7267 89.686 29.1319C 115.72 18.537 138.11 34.7901 160.387 46.4102C 173.068 53.1331 186.133 59.1053 199.514 64.296C 209.533 68.0935 216.629 70.6378 210.899 84.0807C 202.284 104.131 195.719 125.017 186.573 149.51L 213.138 137.7C 208.812 156.953 204.485 175.675 200.652 194.244C 200.197 196.674 202.436 201.839 203.688 201.839C 206.952 202.105 211.961 201.269 213.479 198.991C 220.804 188.054 227.559 176.662 233.821 165.08C 238.299 156.839 241.714 147.991 245.699 139.219C 275.111 166.789 214.238 256.712 149.23 280.977ZM 36.8214 173.928C 51.7358 158.017 48.2065 134.245 27.0303 122.435C 30.5596 141.08 33.5956 156.991 36.8214 173.928Z"/>
<path id="path3_fill" d="M 38.4369 62.0365C 31.5768 62.5298 24.6901 62.5298 17.8299 62.0365C 14.3319 61.4223 11.0396 59.9526 8.24598 57.7583C 5.45233 55.564 3.2438 52.713 1.81673 49.4587C 0.389659 46.2044 -0.211722 42.6477 0.0660422 39.1048C 0.343806 35.5619 1.4921 32.1426 3.40886 29.1508C 27.697 -7.19062 89.404 -10.2665 116.045 23.9483C 120.713 29.9482 122.838 37.9608 126.102 45.024L 103.028 52.6189C 104.926 72.1756 117.867 59.796 127.24 57.8214L 131.035 62.1504C 121.168 72.6313 110.58 82.5426 101.548 93.6691C 86.368 112.656 72.8197 86.0743 62.6111 92.2641L 37.9815 61.5049C 56.9566 57.3657 39.4236 43.5051 43.4842 33.5178L 21.9285 46.4291L 38.4369 62.0365Z"/>
<path id="path4_fill" d="M 0.467939 39.0755C -3.32708 15.7214 16.3311 4.89871 46.0082 2.78132e-05L 0.467939 39.0755Z"/>
<path id="path5_fill" d="M -1.38978e-05 16.4977C 12.2958 -0.856563 25.6543 -3.70463 44.6674 4.15604C 30.7396 13.7635 20.531 26.4469 -1.38978e-05 16.4977Z"/>
<path id="path6_fill" d="M 9.79116 51.4931C 6.56539 34.5566 3.52937 18.6454 1.15815e-06 2.08599e-05C 21.2521 11.81 24.7056 35.5819 9.79116 51.4931Z"/>
<path id="path7_fill" d="M 16.5083 28.2908L -1.04233e-05 12.6834L 21.4418 1.39066e-05C 17.3812 9.98725 34.9521 23.8478 15.9391 27.987L 16.5083 28.2908Z"/>
</defs>
</svg>
