<svg id="Layer_1" data-name="Layer 1" xmlns="http://www.w3.org/2000/svg" viewBox="0 0 300 300"><defs><style>.cls-1{fill:#fff;}</style></defs><title>joe</title><path d="M1,301V1H301V301ZM128.48,191.31c-.76,2.68-1.72,4.31-1.53,5.79.45,3.48.29,8.37,2.44,10.05,5.67,4.42,12.78,5.55,20.12,4.55,4.34-.6,8.74-.68,13.11-1-1.85,1.5-4,1.78-5.85,2.64-1.52.7-2.71,2.1-4.12,3.26-2.07-3-11.51-4.89-13.77-2.12-3.88,4.74-4.36,22.79.18,27.73a113.67,113.67,0,0,0,17,15c6,4.38,13.33,7.09,19.13,11.71,4.68,3.72,8.19,5.35,12.75.65a3.92,3.92,0,0,1,1.86-.68c4.36-1,6.6-3.68,7.79-8.05,2-7.36,4.66-14.53,7-21.79l.74.22-5.16,21.82,1.41.91c2.37-1.38,4.78-2.7,7.1-4.16,5.76-3.63,8.44-8.21,6.65-15.52-1.32-5.38-1-11.18-1.22-16.8-.14-2.94-.08-5.9,0-8.85a134.07,134.07,0,0,1,.72-14c1.11-7.86,2.7-15.66,4.11-23.59-8.32,3.69-10.73,14-20.11,17.88,2.55-3.47,4.45-5.64,5.86-8.09,1.7-2.95,3-6.12,4.43-9.23,2.83-6.25,8.42-11.17,9-18.53,0-.18.46-.34.71-.5a13.82,13.82,0,0,0,7,.9c13.48-1.78,20.18-20.72,15.89-31.7-2.34-6-5.47-7.8-11.56-5.9-1.42.45-3,1.44-4.28,1.13-5.31-1.32-6.91,2.44-8.73,5.93-1.07,2.06-1.89,4.26-2.88,6.37-1.5,3.16-3.81,3-6.13,1.14-3-2.38-3.91-5.5-2.73-9.27a13.28,13.28,0,0,0,.76-5.3c-.61-5.4-1.74-10.74-2.28-16.14-.4-4-1.85-6.32-6-7.35-9.2-2.28-18.28-5-27.41-7.54s-18.15-5.61-27.43-7.12c-4.36-.7-9.44,1.22-13.75,3-1.65.69-2,4.34-3.05,6.61-.47,1.06-.81,2.38-1.63,3-3.83,3.09-3.83,6.07-.46,9.55.83.86.74,2.61,1.11,4.09-8.51,0-11.21,3-8.49,9.81,2-1.68,3.62-3.75,5.71-4.56,2.55-1,5.52-.92,8.3-1.31-.26,2.12.07,4.58-.9,6.31-3,5.35-6.38,10.52-9.87,15.58a10.6,10.6,0,0,0-.88,11.68,18.61,18.61,0,0,1,1.43,7.36c.07,1.84-.75,3.72-1.17,5.58l.74.3,4.22-6.5c1.45,6,0,11.76-3.32,14.84s-3.46,8.83-.43,12.42c4.26-10,4.26-10,7.75-9.91-5.56,6.21-7.5,13.35-4.81,22Zm90.87,36.61-1.83.19q.49,7.29,1,14.6C224.23,235.69,224.11,232.52,219.35,227.92Z" transform="translate(-1 -1)"/><path class="cls-1" d="M128.48,191.31l-4.86,4.3c-2.69-8.62-.75-15.76,4.81-22-3.49-.06-3.49-.06-7.75,9.91-3-3.59-2.82-9.44.43-12.42s4.77-8.88,3.32-14.84l-4.22,6.5-.74-.3c.42-1.86,1.24-3.74,1.17-5.58a18.61,18.61,0,0,0-1.43-7.36,10.6,10.6,0,0,1,.88-11.68c3.49-5.06,6.86-10.23,9.87-15.58,1-1.73.64-4.19.9-6.31-2.78.39-5.75.32-8.3,1.31-2.09.81-3.69,2.88-5.71,4.56-2.72-6.82,0-9.8,8.49-9.81-.37-1.48-.28-3.23-1.11-4.09-3.37-3.48-3.37-6.46.46-9.55.82-.66,1.16-2,1.63-3,1-2.27,1.4-5.92,3.05-6.61,4.31-1.79,9.39-3.71,13.75-3,9.28,1.51,18.31,4.62,27.43,7.12s18.21,5.26,27.41,7.54c4.15,1,5.6,3.38,6,7.35.54,5.4,1.67,10.74,2.28,16.14a13.28,13.28,0,0,1-.76,5.3c-1.18,3.77-.31,6.89,2.73,9.27,2.32,1.82,4.63,2,6.13-1.14,1-2.11,1.81-4.31,2.88-6.37,1.82-3.49,3.42-7.25,8.73-5.93,1.26.31,2.86-.68,4.28-1.13,6.09-1.9,9.22-.07,11.56,5.9,4.29,11-2.41,29.92-15.89,31.7a13.82,13.82,0,0,1-7-.9c-.25.16-.7.32-.71.5-.59,7.36-6.18,12.28-9,18.53-1.41,3.11-2.73,6.28-4.43,9.23-1.41,2.45-3.31,4.62-5.86,8.09,9.38-3.91,11.79-14.19,20.11-17.88-1.41,7.93-3,15.73-4.11,23.59a134.07,134.07,0,0,0-.72,14c-.1,3-.16,5.91,0,8.85.26,5.62-.1,11.42,1.22,16.8,1.79,7.31-.89,11.89-6.65,15.52-2.32,1.46-4.73,2.78-7.1,4.16l-1.41-.91,5.16-21.82-.74-.22c-2.38,7.26-5,14.43-7,21.79-1.19,4.37-3.43,7.06-7.79,8.05a3.92,3.92,0,0,0-1.86.68c-4.56,4.7-8.07,3.07-12.75-.65-5.8-4.62-13.1-7.33-19.13-11.71a113.67,113.67,0,0,1-17-15c-4.54-4.94-4.06-23-.18-27.73,2.26-2.77,11.7-.86,13.77,2.12,1.41-1.16,2.6-2.56,4.12-3.26,1.86-.86,4-1.14,5.85-2.64-4.37.32-8.77.4-13.11,1-7.34,1-14.45-.13-20.12-4.55-2.15-1.68-2-6.57-2.44-10.05C126.76,195.62,127.72,194,128.48,191.31ZM159,123c6.82-.59,8.56-4,5.69-9-.72-1.26-.57-3-.9-5-3.87-.71-8.69,2.85-9.22,8l3.55-1.26C158.45,118.26,158.72,120.48,159,123Zm-12.5-21.86.05,1.61,14.41-.67C155.34,98.32,150.93,98.78,146.53,101.17Zm-15.92,45.16-.33,1.55c2.86.94,5.12,4.55,9.11.25Z" transform="translate(-1 -1)"/><path class="cls-1" d="M219.35,227.92c4.76,4.6,4.88,7.77-.85,14.79q-.5-7.31-1-14.6Z" transform="translate(-1 -1)"/><path d="M159,123c-.31-2.55-.58-4.77-.88-7.3L154.6,117c.53-5.19,5.35-8.75,9.22-8,.33,2,.18,3.77.9,5C167.59,119,165.85,122.44,159,123Z" transform="translate(-1 -1)"/><path d="M146.53,101.17c4.4-2.39,8.81-2.85,14.46.94l-14.41.67Z" transform="translate(-1 -1)"/><path d="M130.61,146.33l8.78,1.8c-4,4.3-6.25.69-9.11-.25Z" transform="translate(-1 -1)"/></svg>
