<svg width="55" height="55" viewBox="0 0 55 55" version="1.1" xmlns="http://www.w3.org/2000/svg" xmlns:xlink="http://www.w3.org/1999/xlink">
<title>github</title>
<desc>Created using Figma</desc>
<g id="Canvas" transform="translate(1162 474)">
<g id="github">
<use xlink:href="#path0_fill" transform="translate(-1162 -478)" fill="#97938B"/>
</g>
</g>
<defs>
<path id="path0_fill" d="M 27.4286 4.71429C 12.2857 4.71429 0 17 0 32.1429C 0 44.25 7.85714 54.5357 18.75 58.1786C 20.1429 58.4286 20.6429 57.5714 20.6429 56.8571C 20.6429 56.1786 20.6071 54.0357 20.6071 51.75C 20.6071 51.75 12.9643 53.3929 11.3571 48.5C 11.3571 48.5 10.1071 45.3214 8.32143 44.5C 8.32143 44.5 5.82143 42.7857 8.5 42.8214C 8.5 42.8214 11.2143 43.0357 12.7143 45.6429C 15.1071 49.8571 19.1071 48.6429 20.6786 47.9286C 20.9286 46.1786 21.6429 44.9643 22.4286 44.25C 16.3214 43.5714 9.92857 41.2143 9.92857 30.7143C 9.92857 27.7143 11 25.2857 12.75 23.3571C 12.4643 22.6429 11.5357 19.8571 13.0357 16.0714C 15.3214 15.3571 20.5714 18.8929 20.5714 18.8929C 22.75 18.2857 25.1071 17.9643 27.4286 17.9643C 29.75 17.9643 32.1071 18.2857 34.2857 18.8929C 34.2857 18.8929 39.5357 15.3571 41.8214 16.0714C 43.3214 19.8571 42.3929 22.6429 42.1071 23.3571C 43.8571 25.2857 44.9286 27.7143 44.9286 30.7143C 44.9286 41.25 38.5 43.5714 32.3929 44.25C 33.3929 45.1071 34.25 46.75 34.25 49.3214C 34.25 53 34.2143 55.9643 34.2143 56.8571C 34.2143 57.5714 34.7143 58.4286 36.1071 58.1786C 47 54.5357 54.8571 44.25 54.8571 32.1429C 54.8571 17 42.5714 4.71429 27.4286 4.71429ZM 10.3929 44.1071C 10.3214 44.25 10.1071 44.2857 9.92857 44.1786C 9.71429 44.0714 9.60714 43.8929 9.67857 43.75C 9.75 43.6429 9.92857 43.6071 10.1429 43.6786C 10.3571 43.7857 10.4643 43.9643 10.3929 44.1071ZM 11.5 45.3214C 11.3571 45.4643 11.1071 45.3929 10.9286 45.2143C 10.75 45 10.7143 44.75 10.8571 44.6429C 11 44.5 11.25 44.5714 11.4286 44.75C 11.6071 44.9643 11.6429 45.2143 11.5 45.3214ZM 12.5714 46.9286C 12.4286 47.0357 12.1429 46.9286 11.9643 46.6786C 11.7857 46.4286 11.7857 46.1429 11.9643 46.0357C 12.1429 45.8929 12.4286 46 12.5714 46.25C 12.75 46.5 12.75 46.7857 12.5714 46.9286ZM 14.0714 48.4286C 13.9286 48.6071 13.6071 48.5714 13.3571 48.3214C 13.1071 48.1071 13.0357 47.7857 13.2143 47.6429C 13.3571 47.4643 13.6786 47.5 13.9286 47.75C 14.1429 47.9643 14.2143 48.2857 14.0714 48.4286ZM 16.1071 49.3214C 16.0357 49.5357 15.7143 49.6429 15.4286 49.5357C 15.1071 49.4643 14.8929 49.2143 14.9643 49C 15.0357 48.7857 15.3571 48.6786 15.6429 48.75C 15.9643 48.8571 16.1786 49.1071 16.1071 49.3214ZM 18.3571 49.5C 18.3571 49.7143 18.1071 49.8929 17.7857 49.8929C 17.4286 49.9286 17.1786 49.75 17.1786 49.5C 17.1786 49.2857 17.4286 49.1071 17.75 49.1071C 18.0714 49.0714 18.3571 49.25 18.3571 49.5ZM 20.4286 49.1429C 20.4643 49.3571 20.25 49.5714 19.9286 49.6429C 19.6071 49.7143 19.3214 49.5714 19.2857 49.3571C 19.25 49.1071 19.4643 48.8929 19.7857 48.8214C 20.1071 48.7857 20.3929 48.9286 20.4286 49.1429Z"/>
</defs>
</svg>
