<svg width="55" height="53" viewBox="0 0 55 53" version="1.1" xmlns="http://www.w3.org/2000/svg" xmlns:xlink="http://www.w3.org/1999/xlink">
<title>linkedin</title>
<desc>Created using Figma</desc>
<g id="Canvas" transform="translate(782 473)">
<g id="linkedin">
<use xlink:href="#path0_fill" transform="translate(-782 -478)" fill="#97938B"/>
</g>
</g>
<defs>
<path id="path0_fill" d="M 12.4643 22.4643L 0.678571 22.4643L 0.678571 57.8571L 12.4643 57.8571L 12.4643 22.4643ZM 13.2143 11.5357C 13.1786 8.07143 10.6786 5.42857 6.64286 5.42857C 2.64286 5.42857 0 8.07143 0 11.5357C 0 14.9286 2.53571 17.6429 6.5 17.6429L 6.57143 17.6429C 10.6786 17.6429 13.25 14.9286 13.2143 11.5357ZM 54.8571 37.5714C 54.8571 26.7143 49.0714 21.6429 41.3214 21.6429C 34.9643 21.6429 32.1786 25.1786 30.6429 27.6071L 30.7143 27.6071L 30.7143 22.4643L 18.9643 22.4643C 18.9643 22.4643 19.1071 25.7857 18.9643 57.8571L 30.7143 57.8571L 30.7143 38.1071C 30.7143 37.0357 30.8214 36 31.1071 35.2143C 31.9643 33.1071 33.8929 30.9286 37.1429 30.9286C 41.3929 30.9286 43.1071 34.1786 43.1071 38.9286L 43.1071 57.8571L 54.8571 57.8571L 54.8571 37.5714Z"/>
</defs>
</svg>
