<svg width="57" height="46" viewBox="0 0 57 46" version="1.1" xmlns="http://www.w3.org/2000/svg" xmlns:xlink="http://www.w3.org/1999/xlink">
<title>twitter</title>
<desc>Created using Figma</desc>
<g id="Canvas" transform="translate(983 460)">
<g id="twitter">
<use xlink:href="#path0_fill" transform="translate(-984 -469)" fill="#97938B"/>
</g>
</g>
<defs>
<path id="path0_fill" d="M 57.8571 14.7143C 55.7857 15.6071 53.5357 16.25 51.2143 16.5C 53.6071 15.0714 55.4286 12.8214 56.2857 10.1429C 54.0714 11.4643 51.5714 12.4286 48.9643 12.9286C 46.8571 10.6786 43.8571 9.28571 40.5357 9.28571C 34.1429 9.28571 29 14.4643 29 20.8214C 29 21.7143 29.1071 22.6071 29.2857 23.4643C 19.7143 22.9643 11.1786 18.3929 5.5 11.3929C 4.5 13.1071 3.92857 15.0714 3.92857 17.2143C 3.92857 21.2143 5.96429 24.75 9.07143 26.8214C 7.17857 26.75 5.39286 26.2143 3.85714 25.3571C 3.85714 25.3929 3.85714 25.4643 3.85714 25.5C 3.85714 31.1071 7.82143 35.75 13.1071 36.8214C 12.1429 37.0714 11.1071 37.2143 10.0714 37.2143C 9.32143 37.2143 8.60714 37.1429 7.89286 37.0357C 9.35714 41.6071 13.6071 44.9286 18.6786 45.0357C 14.7143 48.1429 9.75 49.9643 4.35714 49.9643C 3.39286 49.9643 2.5 49.9286 1.57143 49.8214C 6.67857 53.1071 12.75 55 19.2857 55C 40.5 55 52.1071 37.4286 52.1071 22.1786C 52.1071 21.6786 52.1071 21.1786 52.0714 20.6786C 54.3214 19.0357 56.2857 17 57.8571 14.7143Z"/>
</defs>
</svg>
