<svg id="Layer_1" data-name="Layer 1" xmlns="http://www.w3.org/2000/svg" viewBox="0 0 667 667"><defs><style>.cls-1{fill:#fff;}</style></defs><title>logo</title><rect width="667" height="667"/><path class="cls-1" d="M270.12,256.38l-30-4.5v-12.5a260.61,260.61,0,0,1,34.71-12.5q19.13-5.5,34.72-5.5l10.07,6-48.5,228.5q-7.56,35.49-20.86,59t-27.88,38q-14.58,14.49-27.88,21.5t-21.35,9l-6-11q6-3,14-10.25t16-20a210.25,210.25,0,0,0,15.75-31.75q7.74-19,13.25-45Zm6.5-115.5q0-13,8-20.5t21-7.5q14,0,22,7.5t8,20.5q0,12.5-8,19.5t-22,7q-13,0-21-7T276.62,140.88Z"/><path class="cls-1" d="M443.61,257.88q-13,5-29.25,25.25t-28.75,54.75l-30,139.5h-43l46.5-221-30.5-4.5v-12.5a175.3,175.3,0,0,1,35.5-12.25,272.59,272.59,0,0,1,33.5-5.75l10,6-14,66.5h2q14.5-33,35.5-52.75t45-19.75a69,69,0,0,1,13,1.25,39.51,39.51,0,0,1,12.5,4.75,60.74,60.74,0,0,1-1.5,11.75,104.76,104.76,0,0,1-4.25,14.75q-2.75,7.5-6,14.25a37.67,37.67,0,0,1-6.75,10.25Z"/></svg>
