<svg width="150" height="150" viewBox="0 0 150 150" version="1.1" xmlns="http://www.w3.org/2000/svg" xmlns:xlink="http://www.w3.org/1999/xlink">
<title>logo</title>
<desc>Created using Figma</desc>
<g id="Canvas" transform="translate(1654 190)">
<g id="logo">
<g id="Vector">
<use xlink:href="#path0_fill" transform="translate(-1654 -190)" fill="#38353A"/>
</g>
<g id="Vector">
<use xlink:href="#path1_fill" transform="translate(-1616.41 -164.615)" fill="#FFFFFF"/>
</g>
<g id="Vector">
<use xlink:href="#path2_fill" transform="translate(-1583.7 -140.214)" fill="#FFFFFF"/>
</g>
</g>
</g>
<defs>
<path id="path0_fill" d="M 146 0L 4 0C 1.79086 0 0 1.79086 0 4L 0 146C 0 148.209 1.79086 150 4 150L 146 150C 148.209 150 150 148.209 150 146L 150 4C 150 1.79086 148.209 0 146 0Z"/>
<path id="path1_fill" d="M 23.1567 32.2714L 16.41 31.2594L 16.41 28.4483C 18.9423 27.328 21.5508 26.3886 24.2159 25.6372C 27.084 24.8126 29.6867 24.4003 32.024 24.4003L 34.2886 25.7496L 23.3816 77.1364C 22.2481 82.4573 20.6844 86.8801 18.6904 90.4048C 16.6964 93.9295 14.6064 96.7781 12.4205 98.9505C 10.2346 101.123 8.14468 102.735 6.15067 103.786C 4.15667 104.837 2.55622 105.511 1.34932 105.81L -1.3726e-06 103.336C 0.899549 102.886 1.94902 102.118 3.14842 101.031C 4.34782 99.9438 5.54722 98.4445 6.74663 96.533C 8.12614 94.2569 9.31101 91.8683 10.2886 89.3928C 11.449 86.5442 12.4423 83.1709 13.2684 79.2729L 23.1567 32.2714ZM 24.6184 6.29685C 24.6184 4.34783 25.2181 2.81109 26.4175 1.68666C 27.6169 0.562218 29.1912 -6.17672e-07 31.1402 -6.17672e-07C 33.2391 -6.17672e-07 34.8883 0.562218 36.0877 1.68666C 37.2871 2.81109 37.8868 4.34783 37.8868 6.29685C 37.8868 8.17092 37.2871 9.63268 36.0877 10.6822C 34.8883 11.7316 33.2391 12.2564 31.1402 12.2564C 29.1912 12.2564 27.6169 11.7316 26.4175 10.6822C 25.2181 9.63268 24.6184 8.17092 24.6184 6.29685Z"/>
<path id="path2_fill" d="M 29.4603 8.2084C 27.5112 8.95802 25.3186 10.8508 22.8823 13.8868C 20.446 16.9228 18.2909 21.027 16.4168 26.1994L 9.67016 57.5712L -3.29425e-06 57.5712L 10.4573 7.87107L 3.5982 6.85907L 3.5982 4.04798C 6.15304 2.84647 8.82957 1.92288 11.5817 1.2931C 14.0636 0.705771 16.5797 0.273897 19.1154 1.09808e-06L 21.3643 1.34933L 18.2159 16.3043L 18.6657 16.3043C 20.8396 11.3568 23.5007 7.40255 26.6492 4.44153C 29.7976 1.48051 33.1709 1.09808e-06 36.7691 1.09808e-06C 37.7503 0.00106074 38.7292 0.0951854 39.6927 0.281111C 40.6836 0.474876 41.6342 0.836121 42.5037 1.34933C 42.4777 2.23902 42.3647 3.12404 42.1664 3.99176C 41.9294 5.11934 41.6099 6.22801 41.2106 7.30885C 40.7983 8.43328 40.3486 9.5015 39.8613 10.5135C 39.4847 11.3597 38.9719 12.1384 38.3433 12.8186L 29.4603 8.2084Z"/>
</defs>
</svg>
