<svg width="116" height="116" viewBox="0 0 116 116" version="1.1" xmlns="http://www.w3.org/2000/svg" xmlns:xlink="http://www.w3.org/1999/xlink">
<title>Mail</title>
<desc>Created using Figma</desc>
<g id="Canvas" transform="translate(2733 -3207)">
<g id="Mail" filter="url(#filter0_d)">
<g id="Ellipse">
<use xlink:href="#path0_fill" transform="translate(-2725 3211)" fill="#000"/>
</g>
<g id="&#239;&#131;&#160;">
<use xlink:href="#path1_fill" transform="translate(-2693 3243)" fill="#FFFFFF"/>
</g>
</g>
</g>
<defs>
<filter id="filter0_d" filterUnits="userSpaceOnUse" x="-2733" y="3207" width="116" height="116" color-interpolation-filters="sRGB">
<feFlood flood-opacity="0" result="BackgroundImageFix"/>
<feColorMatrix in="SourceAlpha" type="matrix" values="0 0 0 0 0 0 0 0 0 0 0 0 0 0 0 0 0 0 255 0"/>
<feOffset dx="0" dy="4"/>
<feGaussianBlur stdDeviation="4"/>
<feColorMatrix type="matrix" values="0 0 0 0 0 0 0 0 0 0 0 0 0 0 0 0 0 0 0.25 0"/>
<feBlend mode="normal" in2="BackgroundImageFix" result="effect1_dropShadow"/>
<feBlend mode="normal" in="SourceGraphic" in2="effect1_dropShadow" result="shape"/>
</filter>
<path id="path0_fill" d="M 100 50C 100 77.6142 77.6142 100 50 100C 22.3858 100 0 77.6142 0 50C 0 22.3858 22.3858 0 50 0C 77.6142 0 100 22.3858 100 50Z"/>
<path id="path1_fill" d="M 36 14.4062C 35.3973 15.0692 34.7143 15.6518 33.9911 16.154C 30.6362 18.4241 27.2612 20.7143 23.9866 23.0848C 22.2991 24.3304 20.2098 25.8571 18.0201 25.8571L 18 25.8571L 17.9799 25.8571C 15.7902 25.8571 13.7009 24.3304 12.0134 23.0848C 8.73884 20.6942 5.36384 18.4241 2.02902 16.154C 1.28571 15.6518 0.602679 15.0692 0 14.4062L 0 30.3571C 0 32.125 1.44643 33.5714 3.21429 33.5714L 32.7857 33.5714C 34.5536 33.5714 36 32.125 36 30.3571L 36 14.4062ZM 36 8.5C 36 6.73214 34.5335 5.28571 32.7857 5.28571L 3.21429 5.28571C 1.06473 5.28571 0 6.97321 0 8.94196C 0 10.7701 2.02902 13.0402 3.45536 14.0045C 6.5692 16.1741 9.72321 18.3438 12.8371 20.5335C 14.1429 21.4375 16.3527 23.2857 17.9799 23.2857L 18 23.2857L 18.0201 23.2857C 19.6473 23.2857 21.8571 21.4375 23.1629 20.5335C 26.2768 18.3438 29.4308 16.1741 32.5647 14.0045C 34.3326 12.779 36 10.75 36 8.5Z"/>
</defs>
</svg>
